<?xml version="1.0" encoding="utf-8"?>
<!-- Generator: Adobe Illustrator 19.1.0, SVG Export Plug-In . SVG Version: 6.00 Build 0)  -->
<svg version="1.1" id="Layer_1" xmlns="http://www.w3.org/2000/svg" xmlns:xlink="http://www.w3.org/1999/xlink" x="0px" y="0px"
	 width="340px" height="42px" viewBox="-149 399.9 340 42" style="enable-background:new -149 399.9 340 42;" xml:space="preserve">
<g>
	<polyline points="-92,435.6 -75.6,435.6 -75.6,440.3 -97.6,440.3 -97.6,401.4 -92,401.4 -92,435.6 	"/>
	<path d="M20.7,408.2c-0.7-0.4-1.4-0.8-2-1.1c-0.6-0.3-1.2-0.5-1.9-0.7c-0.7-0.2-1.3-0.3-2-0.4c-0.7-0.1-1.4-0.1-2.2-0.1
		c-4.4,0-7.9,1.4-10.7,4.1c-2.7,2.7-4.1,6.2-4.1,10.6c0,4.4,1.4,8,4.3,10.8c2.8,2.9,6.4,4.3,10.7,4.3h0.7c0.3,0,0.5,0,0.7-0.1
		c1.1-0.1,2.2-0.3,3.3-0.5c1.1-0.3,2.3-0.7,3.6-1.2l0.4,5.4c-0.6,0.2-1.1,0.4-1.7,0.5c-0.5,0.1-1,0.3-1.6,0.4
		c-0.8,0.1-1.7,0.2-2.5,0.3c-0.9,0.1-1.8,0.1-2.9,0.1c-6.1,0-11.2-1.7-15.2-5.2c-4-3.5-6-8.4-6-14.7c0-5.8,1.9-10.5,5.7-14.1
		c3.8-3.6,8.7-5.4,14.7-5.4c1.8,0,3.3,0.1,4.8,0.4c1.4,0.3,2.8,0.7,4.1,1.3L20.7,408.2"/>
	<rect x="132" y="401.4" width="5.5" height="39"/>
	<path d="M187,440.3h-7.2l-12.3-21.1c-0.1-0.2-0.2-0.5-0.4-0.7c-0.1-0.2-0.3-0.4-0.4-0.6l-0.1-0.2l-0.1-0.2
		c-1.1-1.9-2.1-3.8-3.1-5.7c-1-1.9-1.8-3.9-2.5-6c0.2,2.5,0.3,4.9,0.4,7.4c0.1,2.4,0.1,4.9,0.1,7.4v19.8h-5.5v-39h7.6l13.3,23
		c1,1.8,2,3.6,3,5.5c1,1.8,1.8,3.7,2.4,5.7c-0.1-0.9-0.2-1.8-0.2-2.7c-0.1-0.9-0.1-1.7-0.2-2.6c0-0.6,0-1.2,0-1.7c0-0.5,0-1.1,0-1.7
		c0-0.3,0-0.5,0-0.8c0-0.3,0-0.6,0-0.9c0-0.8,0-1.6,0-2.5c0-0.8,0-1.7,0-2.5v-18.7h5.5L187,440.3"/>
	<path d="M-37.5,401.4h-5.8l-16.6,39h6l4-9.9h10.4l1.7-4.7h-10.3l4.3-10.7c0.9-2.1,1.5-3.7,1.9-4.7c0.4-1,0.7-1.9,1-2.6l0.1-0.4
		l0.1-0.3c0-0.2,0.1-0.3,0.1-0.4c0-0.1,0.1-0.3,0.1-0.4c0.4,1.5,0.8,3,1.4,4.4c0.6,1.5,1.2,2.9,1.8,4.3l4.5,10.9l1.9,4.7l4.1,9.9
		h6.3L-37.5,401.4"/>
	<path d="M56.1,419.8l18.4-18.5H67l-13.6,14.1c-0.5,0.6-1.1,1.2-1.6,1.8c-0.5,0.5-1,1.1-1.5,1.7l-1,1.1l1,1.1c0.7,0.9,1.4,1.7,2,2.4
		c0.6,0.7,1.1,1.3,1.5,1.7l14.1,15.1h8.1L56.1,419.8"/>
	<rect x="40" y="401.4" width="5.6" height="39.2"/>
	<polyline points="117.1,406.4 118.8,401.6 91.2,401.6 91.2,440.6 96.8,440.6 96.8,430.7 108.9,430.7 110.5,426 96.8,426 
		96.8,406.4 117.1,406.4 	"/>
	<path d="M-118.2,423.3c-2-1.4-4.5-2.3-7.4-2.7c2.7-0.5,4.9-1.6,6.6-3c1.7-1.5,2.6-3.5,2.6-6.1c0-2.7-0.9-4.8-2.8-6.6
		c-1.9-1.7-4.5-2.8-7.7-3.2l-0.4,0l-0.4,0c-0.6-0.1-1.3-0.1-2-0.1c-0.8,0-1.9,0-3.5,0h-12.4v39h6.2v-34.2h5.3c0.6,0,1.2,0,1.9,0
		c0.6,0,1.3,0,1.9,0.1c1.9,0.2,3.7,0.6,5.3,1.4c1.6,0.8,2.4,2.2,2.4,4.4c0,2.1-0.8,3.6-2.4,4.4c-1.6,0.8-3.3,1.3-5.2,1.4
		c-0.5,0-0.9,0.1-1.4,0.1c-0.5,0-0.9,0-1.3,0h-1.3v4.6h0.2c0.6,0,1.2,0,1.8,0c0.6,0,1.3,0,1.9,0.1c2.2,0.2,4.2,0.7,6.1,1.6
		c1.9,0.9,2.8,2.6,2.8,5.1c0,2.1-0.8,3.6-2.5,4.5c-1.6,0.9-3.5,1.4-5.4,1.6c-0.6,0.1-1.1,0.1-1.6,0.2c-0.5,0-1,0-1.5,0h-1.7v4.7h3.1
		c2.6,0,4.6-0.1,6.1-0.3c1.5-0.2,2.9-0.6,4-1.2c1.9-0.9,3.4-2.1,4.4-3.7c1-1.6,1.5-3.3,1.5-5.2
		C-115.2,426.9-116.2,424.7-118.2,423.3"/>
</g>
</svg>
